<?xml version="1.0" encoding="utf-8"?>
<!-- Generator: Adobe Illustrator 25.2.3, SVG Export Plug-In . SVG Version: 6.00 Build 0)  -->
<svg version="1.1" id="Layer_1" xmlns="http://www.w3.org/2000/svg" xmlns:xlink="http://www.w3.org/1999/xlink" x="0px" y="0px"
	 viewBox="0 0 1788 606" style="enable-background:new 0 0 1788 606;" xml:space="preserve">
<style type="text/css">
	.st0{fill:#62B275;}
	.st1{fill:#003555;}
</style>
<g>
	<g>
		<path class="st0" d="M827.27,83.07c4.07,0.08,8.08,0,12.52-0.1c3.73-0.09,8.13-0.22,12.48-0.49c9.49-0.53,17.39-1.23,24.87-2.2
			L877,77.29c-9.94-0.29-17.57-0.56-24.75-0.86l-12.35-0.59c-3.18-0.17-6.41-0.39-9.53-0.6l-2.75-0.18
			c-8.7-0.61-16.65-1.43-24.3-2.52c-4.85-0.71-8.5-1.36-11.83-2.1c-4.52-1.01-8.03-2.05-11.05-3.28l-9.57-3.9l3,9.96
			c1.58,5.26,2.8,10.7,3.78,15.33c0.53,2.55,1.03,5.12,1.53,7.68l1.46,8.11c1.84,10.85,3.46,21.6,4.8,31.97
			c0.68,5.1,1.39,10.58,1.99,16.06l0.9,8.06c0.27,2.4,0.58,5.24,0.83,8.06c1.03,10.21,1.89,20.8,2.62,32.38l2.99,0.05
			c0.91-9.51,1.27-19.93,1.12-32.8c-0.03-2.87-0.11-5.76-0.2-8.2l-0.02-0.54c-0.07-2.51-0.15-5.11-0.32-7.66
			c-0.29-5.61-0.7-11.18-1.09-16.37c-0.96-11.27-2.28-22.24-3.9-32.61c-1.04-6.56-2.49-15.02-4.63-23.67
			c5.16,1.23,10.38,1.98,16.44,2.67C809.42,82.53,817.17,82.94,827.27,83.07z"/>
		<path class="st0" d="M1160.17,64.08L1160.17,64.08c-10.05,0.77-21.01,1.15-34.5,1.2c-11.46,0.08-23.1-0.14-34.61-0.66
			c-24.02-1.12-47.2-3.27-68.93-6.37c-1.83-0.25-3.66-0.53-5.48-0.82c-1.02-0.16-2.04-0.32-3.05-0.47l-4.26-0.66l-4.27-0.74
			c-1.01-0.18-2.03-0.35-3.04-0.52c-1.83-0.31-3.66-0.62-5.47-0.95l-8.5-1.62c-13.72-2.77-24.11-5.14-33.69-7.71
			C932.08,39.03,910.05,31.7,888.89,23l-6.88-2.83l0.74,7.37c1.21,12.03,2.03,24.92,2.51,39.4c0.46,13.95,0.56,26.91,0.3,39.61
			c-0.09,5.91-0.32,11.93-0.54,17.75l-0.08,2.05c-0.09,2.12-0.22,4.27-0.35,6.36c-0.07,1.18-0.15,2.35-0.21,3.52l-0.3,4.95
			c-0.06,0.96-0.15,1.91-0.23,2.87c-0.06,0.69-0.12,1.37-0.17,2.05l-0.8,9.86l-1.6,14.79l-2.02,14.79l2.96,0.5
			c3.23-15.8,5.27-27.96,6.61-39.42c1.75-14.48,2.89-27.51,3.48-39.85c0.75-14.86,1.05-27.95,0.92-40.01
			c-0.12-11.65-0.5-22.42-1.15-32.82l5.56,2.31l12.33,4.72l12.45,4.38l12.57,4.04l12.67,3.68l4.24,1.12
			c22.71,6.04,45.89,10.71,68.88,13.88c24.03,3.29,47.56,5.28,69.94,5.92c22.98,0.69,43.66,0.26,63.14-1.29
			c-3.93,8.32-6.9,15.4-9.25,22.08c-1.35,3.44-2.49,6.98-3.6,10.41c-0.46,1.44-0.93,2.87-1.42,4.35c-0.69,2.3-1.34,4.61-1.99,6.92
			l-0.15,0.54c-0.12,0.43-0.24,0.86-0.36,1.29c-0.23,0.82-0.47,1.64-0.68,2.47l-0.92,3.73c-1.16,4.46-2.12,9.03-3.05,13.44
			l-1.74,9.31c-0.28,1.64-0.53,3.29-0.77,4.94c-0.13,0.9-0.27,1.8-0.41,2.71c-1.6,11.11-2.46,21.2-2.62,30.83l3,0.14
			c0.7-9.02,2.06-18.62,4.27-30.17c0.18-0.89,0.36-1.78,0.54-2.67c0.32-1.6,0.64-3.21,1-4.8l1.69-7.42l0.43-1.69
			c1.09-4.29,2.22-8.72,3.52-13.03l1.06-3.66c0.23-0.77,0.48-1.54,0.74-2.3c0.14-0.43,0.29-0.87,0.42-1.29l2.34-7.2
			c0.53-1.42,1.04-2.84,1.55-4.27c1.18-3.29,2.4-6.69,3.82-9.98c3.75-9.62,8.4-18.82,12.84-27.41l3.32-6.43L1160.17,64.08z"/>
		<path class="st0" d="M1093.43,135.7L929.6,109.97c-2.18-0.33-4.23,1.16-4.57,3.33c-0.17,1.06,0.09,2.11,0.72,2.98
			c0.63,0.86,1.56,1.43,2.61,1.6l163.82,25.73c0.21,0.03,0.42,0.05,0.62,0.05c1.98,0,3.64-1.42,3.95-3.38
			c0.17-1.06-0.09-2.11-0.72-2.98C1095.41,136.43,1094.48,135.86,1093.43,135.7z"/>
		<path class="st0" d="M1089.46,166.89l-163.82-25.73c-2.18-0.34-4.23,1.16-4.57,3.33c-0.17,1.06,0.09,2.11,0.72,2.98
			c0.63,0.86,1.56,1.43,2.61,1.6l163.82,25.73c0.21,0.03,0.42,0.05,0.62,0.05c1.98,0,3.64-1.42,3.95-3.38
			c0.17-1.06-0.09-2.11-0.72-2.98C1091.44,167.63,1090.52,167.06,1089.46,166.89z"/>
		<path class="st0" d="M870.19,129.75l-53.82-1.41c-2.2-0.01-4.03,1.71-4.09,3.89c-0.03,1.07,0.36,2.08,1.1,2.86s1.73,1.22,2.8,1.25
			l53.81,1.41l0.11,0c2.18,0,3.94-1.71,4-3.9C874.14,131.65,872.39,129.81,870.19,129.75z"/>
		<path class="st0" d="M870.19,158.07l-53.82-1.41c-0.02,0-0.04,0-0.06,0c-2.17,0-3.97,1.74-4.03,3.9c-0.03,1.07,0.36,2.08,1.1,2.86
			s1.73,1.22,2.8,1.25l53.81,1.41l0.11,0c2.18,0,3.94-1.71,4-3.9C874.14,159.97,872.39,158.13,870.19,158.07z"/>
	</g>
	<g>
		<path class="st1" d="M187.91,142.7c-89.63,0-162.28,72.66-162.28,162.28c0,89.63,72.65,162.28,162.28,162.28
			c89.62,0,162.28-72.65,162.28-162.28C350.19,215.36,277.53,142.7,187.91,142.7z M187.91,402.51c-53.86,0-97.52-43.67-97.52-97.53
			s43.66-97.52,97.52-97.52s97.52,43.66,97.52,97.52S241.77,402.51,187.91,402.51z"/>
		<path class="st1" d="M601.15,230.93c-65.26,0-118.16,52.91-118.16,118.17c0,23.28,6.73,45,18.36,63.29
			c8.89,13.99,20.64,25.98,34.43,35.15c18.72,12.46,41.2,19.72,65.37,19.72c24.18,0,46.65-7.25,65.37-19.72
			c1.97-1.3,3.9-2.66,5.78-4.09v32.23c0,39.29-31.85,71.15-71.15,71.15v47.01c65.27,0,118.17-52.9,118.17-118.16V349.1
			C719.32,283.84,666.42,230.93,601.15,230.93z M666.52,377.23c-6.54,15.18-18.21,27.63-32.84,35.16
			c-9.75,5.02-20.81,7.86-32.53,7.86s-22.78-2.84-32.53-7.86c-14.62-7.53-26.3-19.98-32.84-35.16c-3.72-8.63-5.78-18.14-5.78-28.13
			c0-39.3,31.86-71.15,71.15-71.15c39.3,0,71.15,31.85,71.15,71.15C672.3,359.09,670.24,368.6,666.52,377.23z"/>
		<path class="st1" d="M920.88,230.93v23.82c-19.79-14.95-44.44-23.82-71.15-23.82c-65.26,0-118.17,52.91-118.17,118.17
			s52.91,118.16,118.17,118.16S967.9,414.36,967.9,349.1V230.93H920.88z M849.73,420.25c-39.29,0-71.15-31.86-71.15-71.15
			c0-39.3,31.86-71.15,71.15-71.15c39.3,0,71.15,31.85,71.15,71.15C920.88,388.39,889.03,420.25,849.73,420.25z"/>
		<rect x="1220.6" y="230.93" class="st1" width="47.02" height="236.33"/>
		<polygon class="st1" points="1506.71,420.25 1506.71,467.26 1282.12,467.26 1315.33,420.25 1415.86,277.95 1282.04,277.95 
			1282.04,230.93 1506.64,230.93 1473.43,277.95 1372.9,420.25 		"/>
		<path class="st1" d="M1210.97,349.1v118.16h-47.01V349.1c0-39.3-31.86-71.15-71.15-71.15c-39.3,0-71.15,31.85-71.15,71.15v118.16
			h-47.02V349.1c0-65.26,52.9-118.17,118.17-118.17C1158.07,230.93,1210.97,283.84,1210.97,349.1z"/>
		<path class="st1" d="M482.99,231v47.06c-1.33-0.07-2.66-0.11-4.01-0.11c-39.3,0-71.15,31.85-71.15,71.15v126.58h-47.02V349.1
			c0-65.26,52.91-118.17,118.17-118.17C480.32,230.93,481.66,230.95,482.99,231z"/>
		<circle class="st1" cx="1244.11" cy="185.75" r="23.51"/>
		<g>
			<path class="st1" d="M1758.02,349.1c0-10.79-1.45-21.23-4.16-31.16c-13.66-50.14-59.53-87.01-114.01-87.01
				c-54.47,0-100.34,36.87-114,87.01c-2.72,9.93-4.16,20.37-4.16,31.16c0,5.38,0.36,10.67,1.06,15.86
				c7.74,57.76,57.22,102.3,117.1,102.3c30.28,0,57.89-11.38,78.79-30.1l-35.67-31.47c-11.96,9.13-26.91,14.56-43.12,14.56
				c-33.84,0-62.16-23.63-69.37-55.29h186.48C1757.66,359.77,1758.02,354.48,1758.02,349.1z M1575.88,317.94
				c11.54-23.68,35.85-39.99,63.97-39.99c28.12,0,52.43,16.31,63.99,39.99H1575.88z"/>
		</g>
	</g>
</g>
</svg>
