<?xml version="1.0" encoding="utf-8"?>
<!-- Generator: Adobe Illustrator 25.2.3, SVG Export Plug-In . SVG Version: 6.00 Build 0)  -->
<svg version="1.1" id="Layer_1" xmlns="http://www.w3.org/2000/svg" xmlns:xlink="http://www.w3.org/1999/xlink" x="0px" y="0px"
	 viewBox="0 0 1788 489" style="enable-background:new 0 0 1788 489;" xml:space="preserve">
<style type="text/css">
	.st0{fill:#FFFFFF;}
</style>
<g>
	<g>
		<path class="st0" d="M187.91,25.7c-89.63,0-162.28,72.66-162.28,162.28c0,89.63,72.65,162.28,162.28,162.28
			c89.62,0,162.28-72.65,162.28-162.28C350.19,98.36,277.53,25.7,187.91,25.7z M187.91,285.51c-53.86,0-97.52-43.67-97.52-97.53
			s43.66-97.52,97.52-97.52s97.52,43.66,97.52,97.52S241.77,285.51,187.91,285.51z"/>
		<path class="st0" d="M601.15,113.93c-65.26,0-118.16,52.91-118.16,118.17c0,23.28,6.73,45,18.36,63.29
			c8.89,13.99,20.64,25.98,34.43,35.15c18.72,12.46,41.2,19.72,65.37,19.72c24.18,0,46.65-7.25,65.37-19.72
			c1.97-1.3,3.9-2.66,5.78-4.09v32.23c0,39.29-31.85,71.15-71.15,71.15v47.01c65.27,0,118.17-52.9,118.17-118.16V232.1
			C719.32,166.84,666.42,113.93,601.15,113.93z M666.52,260.23c-6.54,15.18-18.21,27.63-32.84,35.16
			c-9.75,5.02-20.81,7.86-32.53,7.86s-22.78-2.84-32.53-7.86c-14.62-7.53-26.3-19.98-32.84-35.16c-3.72-8.63-5.78-18.14-5.78-28.13
			c0-39.3,31.86-71.15,71.15-71.15c39.3,0,71.15,31.85,71.15,71.15C672.3,242.09,670.24,251.6,666.52,260.23z"/>
		<path class="st0" d="M920.88,113.93v23.82c-19.79-14.95-44.44-23.82-71.15-23.82c-65.26,0-118.17,52.91-118.17,118.17
			s52.91,118.16,118.17,118.16S967.9,297.36,967.9,232.1V113.93H920.88z M849.73,303.25c-39.29,0-71.15-31.86-71.15-71.15
			c0-39.3,31.86-71.15,71.15-71.15c39.3,0,71.15,31.85,71.15,71.15C920.88,271.39,889.03,303.25,849.73,303.25z"/>
		<rect x="1220.6" y="113.93" class="st0" width="47.02" height="236.33"/>
		<polygon class="st0" points="1506.71,303.25 1506.71,350.26 1282.12,350.26 1315.33,303.25 1415.86,160.95 1282.04,160.95 
			1282.04,113.93 1506.64,113.93 1473.43,160.95 1372.9,303.25 		"/>
		<path class="st0" d="M1210.97,232.1v118.16h-47.01V232.1c0-39.3-31.86-71.15-71.15-71.15c-39.3,0-71.15,31.85-71.15,71.15v118.16
			h-47.02V232.1c0-65.26,52.9-118.17,118.17-118.17C1158.07,113.93,1210.97,166.84,1210.97,232.1z"/>
		<path class="st0" d="M482.99,114v47.06c-1.33-0.07-2.66-0.11-4.01-0.11c-39.3,0-71.15,31.85-71.15,71.15v126.58h-47.02V232.1
			c0-65.26,52.91-118.17,118.17-118.17C480.32,113.93,481.66,113.95,482.99,114z"/>
		<circle class="st0" cx="1244.11" cy="68.75" r="23.51"/>
		<g>
			<path class="st0" d="M1758.02,232.1c0-10.79-1.45-21.23-4.16-31.16c-13.66-50.14-59.53-87.01-114.01-87.01
				c-54.47,0-100.34,36.87-114,87.01c-2.72,9.93-4.16,20.37-4.16,31.16c0,5.38,0.36,10.67,1.06,15.86
				c7.74,57.76,57.22,102.3,117.1,102.3c30.28,0,57.89-11.38,78.79-30.1l-35.67-31.47c-11.96,9.13-26.91,14.56-43.12,14.56
				c-33.84,0-62.16-23.63-69.37-55.29h186.48C1757.66,242.77,1758.02,237.48,1758.02,232.1z M1575.88,200.94
				c11.54-23.68,35.85-39.99,63.97-39.99c28.12,0,52.43,16.31,63.99,39.99H1575.88z"/>
		</g>
	</g>
</g>
</svg>
