<?xml version="1.0" encoding="utf-8"?>
<!-- Generator: Adobe Illustrator 25.2.3, SVG Export Plug-In . SVG Version: 6.00 Build 0)  -->
<svg version="1.1" id="Layer_1" xmlns="http://www.w3.org/2000/svg" xmlns:xlink="http://www.w3.org/1999/xlink" x="0px" y="0px"
	 viewBox="0 0 341.7 227" style="enable-background:new 0 0 341.7 227;" xml:space="preserve">
<style type="text/css">
	.st0{fill:#FFFFFF;}
</style>
<g>
	<g>
		<path class="st0" d="M309.8,64.1L309.8,64.1c-10,0.8-21,1.2-34.5,1.2c-11.5,0.1-23.1-0.1-34.6-0.7c-24-1.1-47.2-3.3-68.9-6.4
			c-1.8-0.2-3.7-0.5-5.5-0.8c-1-0.2-2-0.3-3-0.5l-4.3-0.7l-4.3-0.7c-1-0.2-2-0.3-3-0.5c-1.8-0.3-3.7-0.6-5.5-1l-8.5-1.6
			c-13.7-2.8-24.1-5.1-33.7-7.7C81.8,39,59.7,31.7,38.6,23l-6.9-2.8l0.7,7.4c1.2,12,2,24.9,2.5,39.4c0.5,13.9,0.6,26.9,0.3,39.6
			c-0.1,5.9-0.3,11.9-0.5,17.8l-0.1,2.1c-0.1,2.1-0.2,4.3-0.4,6.4c-0.1,1.2-0.1,2.4-0.2,3.5l-0.3,4.9c-0.1,1-0.1,1.9-0.2,2.9
			c-0.1,0.7-0.1,1.4-0.2,2.1l-0.8,9.9L31,170.8l-2,14.8l3,0.5c3.2-15.8,5.3-28,6.6-39.4c1.8-14.5,2.9-27.5,3.5-39.8
			c0.8-14.9,1.1-28,0.9-40c-0.1-11.7-0.5-22.4-1.1-32.8l5.6,2.3L59.6,41l12.4,4.4l12.6,4l12.7,3.7l4.2,1.1
			c22.7,6,45.9,10.7,68.9,13.9c24,3.3,47.6,5.3,69.9,5.9c23,0.7,43.7,0.3,63.1-1.3c-3.9,8.3-6.9,15.4-9.2,22.1
			c-1.4,3.4-2.5,7-3.6,10.4c-0.5,1.4-0.9,2.9-1.4,4.3c-0.7,2.3-1.3,4.6-2,6.9l-0.1,0.5c-0.1,0.4-0.2,0.9-0.4,1.3
			c-0.2,0.8-0.5,1.6-0.7,2.5l-0.9,3.7c-1.2,4.5-2.1,9-3,13.4l-1.7,9.3c-0.3,1.6-0.5,3.3-0.8,4.9c-0.1,0.9-0.3,1.8-0.4,2.7
			c-1.6,11.1-2.5,21.2-2.6,30.8l3,0.1c0.7-9,2.1-18.6,4.3-30.2c0.2-0.9,0.4-1.8,0.5-2.7c0.3-1.6,0.6-3.2,1-4.8l1.7-7.4l0.4-1.7
			c1.1-4.3,2.2-8.7,3.5-13l1.1-3.7c0.2-0.8,0.5-1.5,0.7-2.3c0.1-0.4,0.3-0.9,0.4-1.3l2.3-7.2c0.5-1.4,1-2.8,1.5-4.3
			c1.2-3.3,2.4-6.7,3.8-10c3.8-9.6,8.4-18.8,12.8-27.4l3.3-6.4L309.8,64.1z"/>
		<path class="st0" d="M243.1,135.7L79.3,110c-2.2-0.3-4.2,1.2-4.6,3.3c-0.2,1.1,0.1,2.1,0.7,3c0.6,0.9,1.6,1.4,2.6,1.6l163.8,25.7
			c0.2,0,0.4,0.1,0.6,0.1c2,0,3.6-1.4,4-3.4c0.2-1.1-0.1-2.1-0.7-3C245.1,136.4,244.2,135.9,243.1,135.7z"/>
		<path class="st0" d="M239.1,166.9L75.3,141.2c-2.2-0.3-4.2,1.2-4.6,3.3c-0.2,1.1,0.1,2.1,0.7,3c0.6,0.9,1.6,1.4,2.6,1.6
			l163.8,25.7c0.2,0,0.4,0.1,0.6,0.1c2,0,3.6-1.4,4-3.4c0.2-1.1-0.1-2.1-0.7-3C241.1,167.6,240.2,167.1,239.1,166.9z"/>
	</g>
</g>
</svg>
